<svg xmlns="http://www.w3.org/2000/svg" viewBox="0 0 640 360" role="img" aria-label="Preview do DigiWorld Chronicles">
  <defs>
    <linearGradient id="bg" x1="0%" y1="0%" x2="100%" y2="100%">
      <stop offset="0%" stop-color="#0a0a0f"/>
      <stop offset="100%" stop-color="#1a1028"/>
    </linearGradient>
    <linearGradient id="gold" x1="0%" y1="0%" x2="100%" y2="0%">
      <stop offset="0%" stop-color="#c8a84b"/>
      <stop offset="100%" stop-color="#e8d48a"/>
    </linearGradient>
  </defs>
  <rect width="640" height="360" fill="url(#bg)"/>
  <rect x="24" y="24" width="592" height="312" rx="16" fill="rgba(200,168,75,0.05)" stroke="rgba(200,168,75,0.25)"/>
  <text x="48" y="64" fill="#c8a84b" font-family="system-ui,sans-serif" font-size="13" letter-spacing="2">DIGIWORLD CHRONICLES</text>
  <text x="48" y="100" fill="#f1f5f9" font-family="system-ui,sans-serif" font-size="26" font-weight="700">RPG Digital Online</text>
  <rect x="48" y="120" width="120" height="28" rx="6" fill="rgba(200,168,75,0.12)" stroke="rgba(200,168,75,0.3)"/>
  <text x="62" y="139" fill="#e8d48a" font-family="system-ui,sans-serif" font-size="11">Ranking ao vivo</text>
  <rect x="178" y="120" width="90" height="28" rx="6" fill="rgba(255,255,255,0.04)" stroke="rgba(200,168,75,0.15)"/>
  <text x="192" y="139" fill="#94a3b8" font-family="system-ui,sans-serif" font-size="11">Loja 50 itens</text>
  <rect x="278" y="120" width="80" height="28" rx="6" fill="rgba(255,255,255,0.04)" stroke="rgba(200,168,75,0.15)"/>
  <text x="292" y="139" fill="#94a3b8" font-family="system-ui,sans-serif" font-size="11">PIX</text>
  <rect x="48" y="168" width="260" height="140" rx="12" fill="rgba(10,10,15,0.8)" stroke="rgba(200,168,75,0.2)"/>
  <text x="64" y="198" fill="#c8a84b" font-family="system-ui,sans-serif" font-size="12">Top Tamers</text>
  <rect x="64" y="210" width="228" height="22" rx="4" fill="rgba(200,168,75,0.08)"/>
  <text x="76" y="225" fill="#f1f5f9" font-family="monospace" font-size="11">#1 Tamer · Nv. 99 · WarGreymon</text>
  <rect x="64" y="240" width="228" height="22" rx="4" fill="rgba(255,255,255,0.03)"/>
  <text x="76" y="255" fill="#94a3b8" font-family="monospace" font-size="11">#2 Tamer · Nv. 87</text>
  <rect x="64" y="270" width="228" height="22" rx="4" fill="rgba(255,255,255,0.03)"/>
  <text x="76" y="285" fill="#94a3b8" font-family="monospace" font-size="11">#3 Tamer · Nv. 82</text>
  <rect x="328" y="168" width="264" height="140" rx="12" fill="rgba(10,10,15,0.8)" stroke="rgba(200,168,75,0.2)"/>
  <text x="344" y="198" fill="#c8a84b" font-family="system-ui,sans-serif" font-size="12">Stack</text>
  <text x="344" y="228" fill="#94a3b8" font-family="monospace" font-size="11">TypeScript · Vite · Supabase</text>
  <text x="344" y="252" fill="#94a3b8" font-family="monospace" font-size="11">Auth · PostgreSQL · RLS</text>
  <text x="344" y="276" fill="#94a3b8" font-family="monospace" font-size="11">GitHub Actions · Pages</text>
</svg>
