<?xml version="1.0" encoding="UTF-8"?>
<svg xmlns="http://www.w3.org/2000/svg" viewBox="0 0 640 360" role="img" aria-label="Preview do FitMind app de personal trainer">
  <defs>
    <linearGradient id="bg" x1="0%" y1="0%" x2="100%" y2="100%">
      <stop offset="0%" stop-color="#080808"/>
      <stop offset="100%" stop-color="#111827"/>
    </linearGradient>
    <linearGradient id="accent" x1="0%" y1="0%" x2="100%" y2="0%">
      <stop offset="0%" stop-color="#00C853"/>
      <stop offset="100%" stop-color="#00e676"/>
    </linearGradient>
    <radialGradient id="glow" cx="50%" cy="35%" r="55%">
      <stop offset="0%" stop-color="rgba(0,200,83,0.22)"/>
      <stop offset="100%" stop-color="rgba(0,200,83,0)"/>
    </radialGradient>
  </defs>
  <rect width="640" height="360" fill="url(#bg)"/>
  <rect width="640" height="360" fill="url(#glow)"/>
  <rect x="200" y="20" width="240" height="320" rx="28" fill="#0d0d0d" stroke="rgba(0,200,83,0.45)" stroke-width="2"/>
  <rect x="212" y="36" width="216" height="24" rx="12" fill="rgba(255,255,255,0.04)"/>
  <circle cx="320" cy="48" r="4" fill="#00C853"/>
  <rect x="268" y="72" width="104" height="104" rx="22" fill="#080808" stroke="rgba(0,200,83,0.35)" stroke-width="2"/>
  <text x="320" y="138" fill="#00C853" text-anchor="middle" font-family="system-ui,sans-serif" font-size="56" font-weight="800">F</text>
  <text x="320" y="196" fill="#f1f5f9" text-anchor="middle" font-family="system-ui,sans-serif" font-size="22" font-weight="700">FitMind</text>
  <text x="320" y="218" fill="#64748b" text-anchor="middle" font-family="system-ui,sans-serif" font-size="12">Personal trainer com IA</text>
  <rect x="224" y="236" width="192" height="44" rx="12" fill="rgba(0,200,83,0.08)" stroke="rgba(0,200,83,0.25)"/>
  <text x="320" y="258" fill="#00C853" text-anchor="middle" font-family="system-ui,sans-serif" font-size="12" font-weight="600">Treino guiado</text>
  <text x="320" y="274" fill="#94a3b8" text-anchor="middle" font-family="system-ui,sans-serif" font-size="10">Series, descanso e log</text>
  <rect x="224" y="290" width="192" height="34" rx="17" fill="url(#accent)"/>
  <text x="320" y="311" fill="#080808" text-anchor="middle" font-family="system-ui,sans-serif" font-size="12" font-weight="700">Baixar APK Android</text>
  <rect x="48" y="300" width="88" height="24" rx="6" fill="rgba(0,200,83,0.08)" stroke="rgba(0,200,83,0.2)"/>
  <text x="58" y="316" fill="#00C853" font-family="system-ui,sans-serif" font-size="11">Expo</text>
  <rect x="144" y="300" width="110" height="24" rx="6" fill="rgba(255,255,255,0.03)" stroke="rgba(0,200,83,0.12)"/>
  <text x="154" y="316" fill="#94a3b8" font-family="system-ui,sans-serif" font-size="11">React Native</text>
  <rect x="488" y="300" width="90" height="24" rx="6" fill="rgba(255,255,255,0.03)" stroke="rgba(0,200,83,0.12)"/>
  <text x="498" y="316" fill="#94a3b8" font-family="system-ui,sans-serif" font-size="11">Supabase</text>
</svg>
