<?xml version="1.0" encoding="UTF-8"?>
<svg xmlns="http://www.w3.org/2000/svg" viewBox="0 0 640 360" role="img" aria-label="Preview do CRM LARA Consˇrcio Vendas">
  <defs>
    <linearGradient id="bg" x1="0%" y1="0%" x2="100%" y2="100%">
      <stop offset="0%" stop-color="#070f1c"/>
      <stop offset="100%" stop-color="#111f35"/>
    </linearGradient>
    <linearGradient id="gold" x1="0%" y1="0%" x2="100%" y2="0%">
      <stop offset="0%" stop-color="#c9a962"/>
      <stop offset="100%" stop-color="#9a7b3c"/>
    </linearGradient>
    <radialGradient id="glow" cx="50%" cy="35%" r="55%">
      <stop offset="0%" stop-color="rgba(59,130,246,0.18)"/>
      <stop offset="100%" stop-color="rgba(59,130,246,0)"/>
    </radialGradient>
  </defs>
  <rect width="640" height="360" fill="url(#bg)"/>
  <rect width="640" height="360" fill="url(#glow)"/>
  <rect x="48" y="40" width="544" height="280" rx="16" fill="#0c1628" stroke="#1e3354" stroke-width="2"/>
  <rect x="48" y="40" width="544" height="44" rx="16" fill="#111f35"/>
  <rect x="48" y="68" width="544" height="16" fill="#111f35"/>
  <circle cx="72" cy="62" r="5" fill="#3b82f6"/>
  <text x="92" y="66" fill="#94a3b8" font-family="system-ui,sans-serif" font-size="12">LARA  Consˇrcio Vendas</text>
  <rect x="68" y="100" width="120" height="72" rx="10" fill="#111f35" stroke="#1e3354"/>
  <text x="78" y="122" fill="#64748b" font-family="system-ui,sans-serif" font-size="10">Vendas</text>
  <text x="78" y="152" fill="#f1f5f9" font-family="system-ui,sans-serif" font-size="22" font-weight="700">128</text>
  <rect x="204" y="100" width="120" height="72" rx="10" fill="#111f35" stroke="#1e3354"/>
  <text x="214" y="122" fill="#64748b" font-family="system-ui,sans-serif" font-size="10">Clientes</text>
  <text x="214" y="152" fill="#f1f5f9" font-family="system-ui,sans-serif" font-size="22" font-weight="700">64</text>
  <rect x="340" y="100" width="120" height="72" rx="10" fill="#111f35" stroke="#1e3354"/>
  <text x="350" y="122" fill="#64748b" font-family="system-ui,sans-serif" font-size="10">Agenda</text>
  <text x="350" y="152" fill="#c9a962" font-family="system-ui,sans-serif" font-size="22" font-weight="700">Hoje</text>
  <rect x="476" y="100" width="92" height="72" rx="10" fill="rgba(59,130,246,0.12)" stroke="rgba(59,130,246,0.35)"/>
  <text x="522" y="146" fill="#3b82f6" text-anchor="middle" font-family="system-ui,sans-serif" font-size="11" font-weight="600">CRM</text>
  <rect x="68" y="188" width="500" height="108" rx="10" fill="#111f35" stroke="#1e3354"/>
  <text x="88" y="212" fill="#94a3b8" font-family="system-ui,sans-serif" font-size="11">Painel comercial Ě vendas Ě clientes Ě agenda</text>
  <rect x="88" y="224" width="140" height="28" rx="6" fill="rgba(201,169,98,0.12)" stroke="rgba(201,169,98,0.35)"/>
  <text x="158" y="242" fill="#c9a962" text-anchor="middle" font-family="system-ui,sans-serif" font-size="10">Export Excel</text>
  <rect x="240" y="224" width="120" height="28" rx="6" fill="rgba(255,255,255,0.04)" stroke="#1e3354"/>
  <text x="300" y="242" fill="#94a3b8" text-anchor="middle" font-family="system-ui,sans-serif" font-size="10">WhatsApp</text>
  <rect x="372" y="224" width="110" height="28" rx="6" fill="rgba(255,255,255,0.04)" stroke="#1e3354"/>
  <text x="427" y="242" fill="#94a3b8" text-anchor="middle" font-family="system-ui,sans-serif" font-size="10">Tema claro/escuro</text>
  <rect x="88" y="262" width="180" height="22" rx="11" fill="url(#gold)"/>
  <text x="178" y="277" fill="#070f1c" text-anchor="middle" font-family="system-ui,sans-serif" font-size="10" font-weight="700">Next.js + Supabase</text>
  <rect x="48" y="300" width="72" height="24" rx="6" fill="rgba(59,130,246,0.1)" stroke="rgba(59,130,246,0.25)"/>
  <text x="58" y="316" fill="#3b82f6" font-family="system-ui,sans-serif" font-size="11">Next.js</text>
  <rect x="128" y="300" width="88" height="24" rx="6" fill="rgba(255,255,255,0.03)" stroke="#1e3354"/>
  <text x="138" y="316" fill="#94a3b8" font-family="system-ui,sans-serif" font-size="11">Supabase</text>
  <rect x="224" y="300" width="72" height="24" rx="6" fill="rgba(255,255,255,0.03)" stroke="#1e3354"/>
  <text x="234" y="316" fill="#94a3b8" font-family="system-ui,sans-serif" font-size="11">TypeScript</text>
  <rect x="488" y="300" width="104" height="24" rx="6" fill="rgba(201,169,98,0.1)" stroke="rgba(201,169,98,0.25)"/>
  <text x="498" y="316" fill="#c9a962" font-family="system-ui,sans-serif" font-size="11">Vercel</text>
</svg>
