<?xml version="1.0" encoding="UTF-8"?>
<svg xmlns="http://www.w3.org/2000/svg" viewBox="0 0 640 360" role="img" aria-label="Preview do PC Dashboard">
  <defs>
    <linearGradient id="dbg" x1="0%" y1="0%" x2="100%" y2="100%">
      <stop offset="0%" stop-color="#1a1d21"/>
      <stop offset="100%" stop-color="#121417"/>
    </linearGradient>
  </defs>
  <rect width="640" height="360" fill="url(#dbg)"/>
  <!-- Window chrome -->
  <rect x="16" y="16" width="608" height="328" rx="12" fill="#1a1d21" stroke="rgba(255,255,255,0.1)"/>
  <rect x="16" y="16" width="608" height="28" rx="12" fill="#222529"/>
  <rect x="16" y="32" width="608" height="12" fill="#222529"/>
  <circle cx="36" cy="30" r="5" fill="#e01e5a"/>
  <circle cx="54" cy="30" r="5" fill="#ecb22e"/>
  <circle cx="72" cy="30" r="5" fill="#2eb67d"/>
  <text x="96" y="34" fill="#9b9b9e" font-family="Segoe UI, system-ui, sans-serif" font-size="11">PC Dashboard</text>
  <!-- Icon rail -->
  <rect x="16" y="44" width="44" height="300" fill="#1a0d1f"/>
  <circle cx="38" cy="72" r="12" fill="#3f0e40" stroke="#1d9bd1" stroke-width="1.5"/>
  <rect x="30" y="100" width="16" height="16" rx="4" fill="#1d9bd1"/>
  <rect x="30" y="128" width="16" height="16" rx="4" fill="rgba(255,255,255,0.2)"/>
  <rect x="30" y="156" width="16" height="16" rx="4" fill="rgba(255,255,255,0.15)"/>
  <rect x="30" y="300" width="16" height="16" rx="4" fill="rgba(255,255,255,0.12)"/>
  <!-- Purple sidebar -->
  <rect x="60" y="44" width="180" height="300" fill="#3f0e40"/>
  <rect x="60" y="44" width="180" height="40" fill="#350d36"/>
  <text x="76" y="70" fill="#ffffff" font-family="Segoe UI, system-ui, sans-serif" font-size="13" font-weight="700">PC Dashboard</text>
  <text x="76" y="100" fill="rgba(255,255,255,0.45)" font-family="ui-monospace, monospace" font-size="9">CANAIS</text>
  <rect x="72" y="112" width="156" height="26" rx="6" fill="rgba(255,255,255,0.12)"/>
  <text x="84" y="129" fill="#ffffff" font-family="ui-monospace, monospace" font-size="11"># modo-dev</text>
  <text x="84" y="161" fill="rgba(255,255,255,0.7)" font-family="ui-monospace, monospace" font-size="11"># git-sync</text>
  <text x="84" y="189" fill="rgba(255,255,255,0.7)" font-family="ui-monospace, monospace" font-size="11"># organizar-downloads</text>
  <text x="84" y="217" fill="rgba(255,255,255,0.7)" font-family="ui-monospace, monospace" font-size="11"># limpar-temp</text>
  <text x="84" y="245" fill="rgba(255,255,255,0.55)" font-family="ui-monospace, monospace" font-size="11"># abrir-projetos</text>
  <text x="76" y="280" fill="rgba(255,255,255,0.45)" font-family="ui-monospace, monospace" font-size="9">APPS</text>
  <text x="84" y="300" fill="rgba(255,255,255,0.65)" font-family="ui-monospace, monospace" font-size="11"># github</text>
  <!-- Main panel -->
  <rect x="240" y="44" width="384" height="300" fill="#1a1d21"/>
  <text x="260" y="72" fill="#ffffff" font-family="Segoe UI, system-ui, sans-serif" font-size="15" font-weight="700"># modo-dev</text>
  <text x="260" y="92" fill="#9b9b9e" font-family="Segoe UI, system-ui, sans-serif" font-size="10">Atividade · status do sistema</text>
  <!-- Message bubbles -->
  <circle cx="272" cy="128" r="10" fill="#2eb67d"/>
  <text x="292" y="124" fill="#d1d2d3" font-family="Segoe UI, system-ui, sans-serif" font-size="11" font-weight="600">PC Dashboard</text>
  <text x="400" y="124" fill="#9b9b9e" font-family="ui-monospace, monospace" font-size="9">agora</text>
  <text x="292" y="142" fill="#d1d2d3" font-family="Segoe UI, system-ui, sans-serif" font-size="11">Modo Dev ativado com sucesso.</text>
  <circle cx="272" cy="178" r="10" fill="#1d9bd1"/>
  <text x="292" y="174" fill="#d1d2d3" font-family="Segoe UI, system-ui, sans-serif" font-size="11" font-weight="600">Sistema</text>
  <text x="360" y="174" fill="#9b9b9e" font-family="ui-monospace, monospace" font-size="9">12:04</text>
  <text x="292" y="192" fill="#d1d2d3" font-family="Segoe UI, system-ui, sans-serif" font-size="11">Disco C: 42% · RAM 61% · CPU 18%</text>
  <circle cx="272" cy="228" r="10" fill="#ecb22e"/>
  <text x="292" y="224" fill="#d1d2d3" font-family="Segoe UI, system-ui, sans-serif" font-size="11" font-weight="600">Git Sync</text>
  <text x="360" y="224" fill="#9b9b9e" font-family="ui-monospace, monospace" font-size="9">11:58</text>
  <text x="292" y="242" fill="#d1d2d3" font-family="Segoe UI, system-ui, sans-serif" font-size="11">3 repositórios sincronizados.</text>
  <!-- Status bar -->
  <rect x="240" y="312" width="384" height="32" fill="#222529"/>
  <rect x="256" y="322" width="70" height="12" rx="3" fill="rgba(46,182,125,0.25)"/>
  <text x="264" y="332" fill="#2eb67d" font-family="ui-monospace, monospace" font-size="8">ONLINE</text>
  <text x="340" y="332" fill="#9b9b9e" font-family="ui-monospace, monospace" font-size="8">C: 42%  RAM 61%  CPU 18%</text>
  <text x="540" y="332" fill="#1d9bd1" font-family="ui-monospace, monospace" font-size="8">v1.4.0</text>
</svg>
