<?xml version="1.0" encoding="UTF-8"?>
<svg xmlns="http://www.w3.org/2000/svg" viewBox="0 0 640 360" role="img" aria-label="Preview do Portfolio Pessoal">
  <defs>
    <linearGradient id="pbg" x1="0%" y1="0%" x2="100%" y2="100%">
      <stop offset="0%" stop-color="#0d1426"/>
      <stop offset="100%" stop-color="#0a1020"/>
    </linearGradient>
    <linearGradient id="ptext" x1="0%" y1="0%" x2="100%" y2="0%">
      <stop offset="0%" stop-color="#f4f8ff"/>
      <stop offset="50%" stop-color="#2ddcff"/>
      <stop offset="100%" stop-color="#c85cff"/>
    </linearGradient>
    <radialGradient id="pglow" cx="30%" cy="20%" r="60%">
      <stop offset="0%" stop-color="rgba(45,220,255,0.18)"/>
      <stop offset="100%" stop-color="rgba(45,220,255,0)"/>
    </radialGradient>
  </defs>
  <rect width="640" height="360" fill="url(#pbg)"/>
  <rect width="640" height="360" fill="url(#pglow)"/>
  <rect x="0" y="0" width="640" height="44" fill="rgba(10,16,32,0.85)" stroke="rgba(45,220,255,0.15)"/>
  <text x="28" y="28" fill="#2ddcff" font-family="ui-monospace,monospace" font-size="13">&lt;EduCardoso /&gt;</text>
  <rect x="24" y="60" width="360" height="276" rx="14" fill="rgba(22,35,59,0.72)" stroke="rgba(45,220,255,0.2)"/>
  <rect x="24" y="60" width="360" height="36" rx="14" fill="rgba(0,0,0,0.22)"/>
  <rect x="24" y="84" width="360" height="12" fill="rgba(22,35,59,0.72)"/>
  <circle cx="44" cy="78" r="5" fill="#ff5f57"/>
  <circle cx="62" cy="78" r="5" fill="#febc2e"/>
  <circle cx="80" cy="78" r="5" fill="#28c840"/>
  <text x="96" y="82" fill="#9eb0cc" font-family="ui-monospace,monospace" font-size="10">~/dev/eduardo-cardoso - profile.ts</text>
  <text x="44" y="118" fill="#9eb0cc" font-family="ui-monospace,monospace" font-size="11">$ whoami</text>
  <text x="56" y="138" fill="#2ddcff" font-family="ui-monospace,monospace" font-size="11">eduardo-cardoso</text>
  <text x="44" y="168" fill="#9eb0cc" font-family="ui-monospace,monospace" font-size="11">&gt; Ola, eu sou</text>
  <text x="44" y="206" fill="url(#ptext)" font-family="system-ui,sans-serif" font-size="28" font-weight="700">Eduardo Cardoso</text>
  <rect x="44" y="224" width="120" height="22" rx="11" fill="rgba(0,255,136,0.08)" stroke="rgba(0,255,136,0.25)"/>
  <text x="58" y="239" fill="#3dffb0" font-family="ui-monospace,monospace" font-size="9">DISPONIVEL</text>
  <rect x="44" y="258" width="72" height="52" rx="8" fill="rgba(16,26,44,0.55)" stroke="rgba(42,63,99,0.9)"/>
  <text x="56" y="284" fill="#2ddcff" font-family="ui-monospace,monospace" font-size="18" font-weight="700">5</text>
  <text x="56" y="300" fill="#9eb0cc" font-family="ui-monospace,monospace" font-size="8">EXPERIENCIAS</text>
  <rect x="126" y="258" width="72" height="52" rx="8" fill="rgba(16,26,44,0.55)" stroke="rgba(42,63,99,0.9)"/>
  <text x="138" y="284" fill="#2ddcff" font-family="ui-monospace,monospace" font-size="18" font-weight="700">4</text>
  <text x="138" y="300" fill="#9eb0cc" font-family="ui-monospace,monospace" font-size="8">PROJETOS</text>
  <rect x="208" y="258" width="88" height="28" rx="8" fill="rgba(45,220,255,0.15)" stroke="rgba(45,220,255,0.35)"/>
  <text x="222" y="277" fill="#2ddcff" font-family="ui-monospace,monospace" font-size="10">Ver projetos</text>
  <circle cx="500" cy="180" r="78" fill="none" stroke="rgba(45,220,255,0.25)" stroke-width="2"/>
  <circle cx="500" cy="180" r="62" fill="none" stroke="rgba(200,92,255,0.2)" stroke-width="1.5"/>
  <circle cx="500" cy="180" r="46" fill="rgba(45,220,255,0.08)" stroke="#2ddcff" stroke-width="2"/>
  <text x="468" y="186" fill="#9eb0cc" font-family="system-ui,sans-serif" font-size="13" font-weight="600">EC</text>
  <rect x="404" y="268" width="192" height="68" rx="10" fill="rgba(22,35,59,0.72)" stroke="rgba(42,63,99,0.9)"/>
  <text x="420" y="290" fill="#9eb0cc" font-family="ui-monospace,monospace" font-size="10">// status</text>
  <text x="548" y="290" fill="#3dffb0" font-family="ui-monospace,monospace" font-size="10" text-anchor="end">ativo</text>
  <text x="420" y="312" fill="#9eb0cc" font-family="ui-monospace,monospace" font-size="10">// stack</text>
  <text x="548" y="312" fill="#f4f8ff" font-family="ui-monospace,monospace" font-size="10" text-anchor="end">HTML - TS</text>
</svg>
